<svg width="61" height="61" viewBox="0 0 61 61" fill="none" xmlns="http://www.w3.org/2000/svg">
<path d="M2.99993 31.0996C2.99993 38.7909 6.05528 46.1671 11.4938 51.6057C16.9324 57.0443 24.3087 60.0996 32 60.0996C39.6912 60.0996 47.0675 57.0443 52.5061 51.6057C57.9446 46.1671 61 38.7909 61 31.0996L32 31.0996L2.99993 31.0996Z" fill="url(#paint0_linear_3414_8866)"/>
<path d="M-7.24792e-05 29C-7.24792e-05 36.6913 3.05528 44.0675 8.49384 49.5061C13.9324 54.9446 21.3087 58 29 58C36.6912 58 44.0675 54.9446 49.5061 49.5061C54.9446 44.0675 58 36.6913 58 29L29 29L-7.24792e-05 29Z" fill="white"/>
<circle cx="30.9199" cy="16.0595" r="11.04" fill="url(#paint1_linear_3414_8866)"/>
<circle cx="28.04" cy="14.1396" r="11.04" fill="white"/>
<defs>
<linearGradient id="paint0_linear_3414_8866" x1="6" y1="22.999" x2="62.5" y2="22.499" gradientUnits="userSpaceOnUse">
<stop offset="0.00223711" stop-color="#B16CEA"/>
<stop offset="0.428766" stop-color="#FF5E69"/>
<stop offset="0.732809" stop-color="#FF8A56"/>
<stop offset="1" stop-color="#FFA84B"/>
</linearGradient>
<linearGradient id="paint1_linear_3414_8866" x1="19.8799" y1="18.8195" x2="42.7804" y2="18.8195" gradientUnits="userSpaceOnUse">
<stop offset="0.00223711" stop-color="#B16CEA"/>
<stop offset="0.355507" stop-color="#FF5E69"/>
<stop offset="0.732809" stop-color="#FF8A56"/>
<stop offset="1" stop-color="#FFA84B"/>
</linearGradient>
</defs>
</svg>
