<svg width="28" height="28" viewBox="0 0 28 28" fill="none" xmlns="http://www.w3.org/2000/svg">
<path d="M9.43731 7.21631C10.1007 7.21631 10.6975 7.27375 11.2449 7.39087C11.7889 7.50687 12.2529 7.69833 12.6448 7.96299C13.0311 8.22765 13.3329 8.57904 13.5503 9.02051C13.7609 9.45636 13.8656 10.0015 13.8656 10.6457C13.8656 11.3439 13.7079 11.9273 13.3915 12.3924C13.0727 12.8587 12.6031 13.2405 11.9769 13.5355C12.8295 13.7822 13.4613 14.2135 13.8802 14.8262C14.3015 15.4445 14.5076 16.1844 14.5076 17.0516C14.5076 17.7555 14.3735 18.3603 14.1044 18.8682C13.845 19.3686 13.4687 19.7989 13.0074 20.1228C12.5296 20.4555 11.996 20.6996 11.4318 20.8436C10.8404 20.9988 10.2313 21.0768 9.61976 21.0756H2.90186V7.21631H9.43731ZM9.04201 12.8159C9.58259 12.8159 10.0308 12.6875 10.3845 12.4273C10.7358 12.1706 10.9059 11.7471 10.9059 11.1671C10.9059 10.845 10.8485 10.5792 10.7358 10.3709C10.6261 10.1704 10.4637 10.0037 10.2662 9.88883C10.0595 9.76622 9.8313 9.68404 9.59385 9.64669C9.33504 9.59842 9.07214 9.57542 8.80888 9.57799H5.95391V12.8159H9.04201ZM9.21207 18.7161C9.51277 18.7161 9.79883 18.6902 10.068 18.6294C10.3394 18.5709 10.5804 18.4763 10.7854 18.3355C10.9904 18.2003 11.1593 18.0168 11.2809 17.7825C11.4037 17.5505 11.4634 17.2476 11.4634 16.8838C11.4634 16.1698 11.2618 15.6618 10.8631 15.3544C10.4633 15.0503 9.92722 14.8994 9.27063 14.8994H5.95391V18.7173H9.21207V18.7161ZM18.8581 18.67C19.2715 19.0732 19.8672 19.2759 20.6421 19.2759C21.1973 19.2759 21.6771 19.1351 22.0814 18.8558C22.4801 18.5754 22.7233 18.2758 22.8168 17.9661H25.2438C24.8541 19.1734 24.2629 20.0361 23.4542 20.5553C22.6558 21.0767 21.6838 21.3357 20.5486 21.3357C19.758 21.3357 19.0462 21.2085 18.4088 20.9562C17.7969 20.7179 17.244 20.3498 16.7881 19.8773C16.3398 19.3937 15.9932 18.825 15.7689 18.2048C15.5224 17.5191 15.4003 16.7948 15.4085 16.0661C15.4085 15.3161 15.5335 14.6145 15.7791 13.9669C16.0121 13.3409 16.37 12.7688 16.8309 12.2854C17.2871 11.8124 17.8276 11.4396 18.4572 11.166C19.1192 10.8875 19.8316 10.7487 20.5497 10.7583C21.3989 10.7583 22.1411 10.9227 22.7785 11.2538C23.3967 11.5699 23.9327 12.0257 24.344 12.585C24.7528 13.1402 25.0445 13.7765 25.2258 14.4894C25.4071 15.2012 25.4702 15.9445 25.4184 16.7227H18.1756C18.1768 17.5156 18.4437 18.2668 18.8581 18.67ZM22.0251 13.3981C21.6973 13.0355 21.1432 12.8395 20.4653 12.8395C20.0249 12.8395 19.6611 12.9127 19.3683 13.0636C19.1006 13.1989 18.863 13.387 18.6701 13.6166C18.5006 13.8251 18.3749 14.0657 18.3007 14.3239C18.2357 14.5392 18.1938 14.7608 18.1756 14.985H22.6603C22.5949 14.2822 22.3539 13.763 22.0251 13.3981ZM17.6125 8.14657H23.2313V9.51492H17.6125V8.14657Z" fill="white"/>
</svg>
