<svg width="19" height="19" viewBox="0 0 19 19" fill="none" xmlns="http://www.w3.org/2000/svg">
<g clip-path="url(#clip0_3266_373)">
<path fill-rule="evenodd" clip-rule="evenodd" d="M9.41113 0.266602C4.43699 0.266602 0.401367 4.30222 0.401367 9.27636C0.401367 14.2505 4.43699 18.2861 9.41113 18.2861C14.3755 18.2861 18.4209 14.2505 18.4209 9.27636C18.4209 4.30222 14.3755 0.266602 9.41113 0.266602ZM15.3621 4.41935C16.4714 5.77032 17.0852 7.46007 17.1017 9.20804C16.8479 9.15924 14.3072 8.64117 11.7469 8.96402C11.6876 8.83639 11.6388 8.69974 11.5802 8.56309C11.421 8.18723 11.2518 7.8157 11.0727 7.44888C13.9062 6.29563 15.1961 4.63483 15.3621 4.41935ZM9.41113 1.59629C11.3655 1.59629 13.1539 2.32834 14.5122 3.53039C14.3755 3.7256 13.2125 5.27978 10.4765 6.30539C9.21517 3.98989 7.81865 2.09333 7.60317 1.80051C8.1958 1.66213 8.80256 1.59334 9.41113 1.59554V1.59629ZM6.13758 2.31857C6.34255 2.59262 7.71054 4.49819 8.99067 6.76489C5.39428 7.72293 2.21834 7.70341 1.87672 7.70341C2.37526 5.31882 3.988 3.33518 6.13758 2.31857ZM1.71079 9.28612V9.05187C2.0434 9.06163 5.77569 9.11043 9.61685 7.95718C9.84134 8.3874 10.0463 8.82663 10.2415 9.2666C10.1439 9.29588 10.0366 9.32517 9.93895 9.35445C5.97165 10.6346 3.86036 14.1326 3.68467 14.4262C2.41386 13.0158 1.71064 11.1846 1.71079 9.28612ZM9.41113 16.9767C7.63245 16.9767 5.99117 16.3708 4.69152 15.3549C4.82816 15.0711 6.39136 12.0611 10.7303 10.5467C10.7498 10.537 10.7603 10.537 10.7791 10.5272C11.864 13.3315 12.3033 15.6868 12.4211 16.361C11.4924 16.762 10.4765 16.9767 9.41113 16.9767ZM13.7013 15.6575C13.6232 15.1883 13.2125 12.9411 12.2057 10.1751C14.6195 9.79442 16.7301 10.4199 16.9943 10.5077C16.6617 12.6475 15.4304 14.4945 13.7013 15.6575Z" fill="white"/>
</g>
<defs>
<clipPath id="clip0_3266_373">
<rect width="18.0195" height="18.0195" fill="white" transform="translate(0.402344 0.266602)"/>
</clipPath>
</defs>
</svg>
