<svg width="21" height="21" viewBox="0 0 21 21" fill="none" xmlns="http://www.w3.org/2000/svg">
<path d="M17.9215 4H3.19354C2.18099 4 1.36174 4.82845 1.36174 5.841L1.35254 16.887C1.35254 17.8995 2.18099 18.728 3.19354 18.728H17.9215C18.9341 18.728 19.7625 17.8995 19.7625 16.887V5.841C19.7625 4.82845 18.9341 4 17.9215 4ZM17.5533 7.91212L11.0454 11.9807C10.7508 12.1648 10.3642 12.1648 10.0697 11.9807L3.56174 7.91212C3.46944 7.86031 3.38861 7.79031 3.32415 7.70635C3.25968 7.62239 3.21293 7.52623 3.1867 7.42368C3.16048 7.32113 3.15534 7.21433 3.17159 7.10973C3.18784 7.00514 3.22515 6.90493 3.28125 6.81517C3.33735 6.72541 3.41108 6.64796 3.49797 6.58752C3.58487 6.52708 3.68313 6.4849 3.7868 6.46353C3.89047 6.44217 3.9974 6.44206 4.10111 6.46321C4.20482 6.48436 4.30317 6.52634 4.39019 6.5866L10.5575 10.4435L16.7249 6.5866C16.8119 6.52634 16.9103 6.48436 17.014 6.46321C17.1177 6.44206 17.2246 6.44217 17.3283 6.46353C17.432 6.4849 17.5302 6.52708 17.6171 6.58752C17.704 6.64796 17.7777 6.72541 17.8338 6.81517C17.8899 6.90493 17.9272 7.00514 17.9435 7.10973C17.9597 7.21433 17.9546 7.32113 17.9284 7.42368C17.9022 7.52623 17.8554 7.62239 17.7909 7.70635C17.7265 7.79031 17.6456 7.86031 17.5533 7.91212Z" fill="white"/>
</svg>
