<svg width="21" height="21" viewBox="0 0 21 21" fill="none" xmlns="http://www.w3.org/2000/svg">
<path fill-rule="evenodd" clip-rule="evenodd" d="M6.84429 1.24592C7.81307 1.20132 8.12195 1.19141 10.5897 1.19141C13.0575 1.19141 13.3664 1.20214 14.3343 1.24592C15.3023 1.28969 15.963 1.44413 16.5411 1.66795C17.1465 1.89672 17.6957 2.25433 18.15 2.71683C18.6125 3.17025 18.9692 3.71864 19.1972 4.32485C19.4218 4.90298 19.5755 5.56369 19.6201 6.52999C19.6647 7.50041 19.6746 7.8093 19.6746 10.2762C19.6746 12.744 19.6638 13.0529 19.6201 14.0217C19.5763 14.988 19.4218 15.6487 19.1972 16.2268C18.9692 16.8331 18.6119 17.3824 18.15 17.8365C17.6957 18.299 17.1465 18.6558 16.5411 18.8837C15.963 19.1084 15.3023 19.262 14.336 19.3066C13.3664 19.3512 13.0575 19.3611 10.5897 19.3611C8.12195 19.3611 7.81307 19.3503 6.84429 19.3066C5.878 19.2628 5.21728 19.1084 4.63915 18.8837C4.03288 18.6557 3.48358 18.2984 3.02948 17.8365C2.5673 17.3828 2.20963 16.8338 1.98142 16.2276C1.75761 15.6495 1.60399 14.9888 1.55939 14.0225C1.51479 13.0521 1.50488 12.7432 1.50488 10.2762C1.50488 7.80847 1.51562 7.49959 1.55939 6.53164C1.60316 5.56369 1.75761 4.90298 1.98142 4.32485C2.20997 3.71871 2.56791 3.16968 3.03031 2.71601C3.48376 2.25392 4.03251 1.89626 4.63833 1.66795C5.21645 1.44413 5.87717 1.29051 6.84347 1.24592H6.84429ZM14.2608 2.88119C13.3028 2.83741 13.0154 2.82833 10.5897 2.82833C8.16407 2.82833 7.87666 2.83741 6.91862 2.88119C6.03244 2.92166 5.55177 3.06949 5.23132 3.1942C4.80764 3.35938 4.50453 3.55512 4.18656 3.87309C3.88515 4.16632 3.65318 4.5233 3.50768 4.91784C3.38297 5.23829 3.23513 5.71896 3.19466 6.60514C3.15089 7.56318 3.14181 7.85059 3.14181 10.2762C3.14181 12.7019 3.15089 12.9893 3.19466 13.9473C3.23513 14.8335 3.38297 15.3142 3.50768 15.6347C3.65303 16.0286 3.88511 16.3862 4.18656 16.6794C4.47976 16.9809 4.83737 17.2129 5.23132 17.3583C5.55177 17.483 6.03244 17.6308 6.91862 17.6713C7.87666 17.7151 8.16325 17.7242 10.5897 17.7242C13.0162 17.7242 13.3028 17.7151 14.2608 17.6713C15.147 17.6308 15.6277 17.483 15.9481 17.3583C16.3718 17.1931 16.6749 16.9974 16.9929 16.6794C17.2943 16.3862 17.5264 16.0286 17.6718 15.6347C17.7965 15.3142 17.9443 14.8335 17.9848 13.9473C18.0286 12.9893 18.0376 12.7019 18.0376 10.2762C18.0376 7.85059 18.0286 7.56318 17.9848 6.60514C17.9443 5.71896 17.7965 5.23829 17.6718 4.91784C17.5066 4.49416 17.3109 4.19106 16.9929 3.87309C16.6996 3.57169 16.3427 3.33973 15.9481 3.1942C15.6277 3.06949 15.147 2.92166 14.2608 2.88119ZM9.42934 13.0769C10.0774 13.3466 10.799 13.383 11.4709 13.1799C12.1428 12.9767 12.7233 12.5466 13.1133 11.9629C13.5033 11.3793 13.6786 10.6783 13.6092 9.97984C13.5399 9.28132 13.2301 8.62856 12.7329 8.13305C12.416 7.8163 12.0327 7.57376 11.6108 7.4229C11.1889 7.27204 10.7387 7.2166 10.2928 7.26059C9.84688 7.30457 9.41625 7.44688 9.03192 7.67726C8.64759 7.90765 8.31913 8.22038 8.07017 8.59295C7.82121 8.96552 7.65795 9.38865 7.59215 9.83188C7.52635 10.2751 7.55964 10.7274 7.68963 11.1562C7.81961 11.5851 8.04306 11.9797 8.34389 12.3118C8.64471 12.6439 9.01542 12.9052 9.42934 13.0769ZM7.2878 6.97432C7.72141 6.5407 8.23619 6.19674 8.80273 5.96207C9.36928 5.7274 9.9765 5.60662 10.5897 5.60662C11.2029 5.60662 11.8102 5.7274 12.3767 5.96207C12.9433 6.19674 13.458 6.5407 13.8917 6.97432C14.3253 7.40793 14.6692 7.92271 14.9039 8.48926C15.1386 9.0558 15.2594 9.66302 15.2594 10.2762C15.2594 10.8895 15.1386 11.4967 14.9039 12.0632C14.6692 12.6298 14.3253 13.1446 13.8917 13.5782C13.0159 14.4539 11.8282 14.9459 10.5897 14.9459C9.35126 14.9459 8.16352 14.4539 7.2878 13.5782C6.41207 12.7024 5.92009 11.5147 5.92009 10.2762C5.92009 9.03778 6.41207 7.85005 7.2878 6.97432ZM16.295 6.30204C16.4025 6.20068 16.4885 6.07879 16.548 5.94358C16.6075 5.80838 16.6392 5.66261 16.6414 5.51491C16.6436 5.3672 16.616 5.22057 16.5605 5.08369C16.505 4.94681 16.4225 4.82246 16.3181 4.71801C16.2136 4.61356 16.0893 4.53112 15.9524 4.47559C15.8155 4.42006 15.6689 4.39255 15.5212 4.39471C15.3735 4.39686 15.2277 4.42863 15.0925 4.48813C14.9573 4.54763 14.8354 4.63365 14.7341 4.7411C14.5369 4.95008 14.429 5.22765 14.4332 5.51491C14.4374 5.80216 14.5534 6.07647 14.7565 6.27961C14.9596 6.48275 15.2339 6.59873 15.5212 6.60291C15.8085 6.6071 16.086 6.49917 16.295 6.30204Z" fill="white"/>
</svg>
