<svg width="61" height="33" viewBox="0 0 61 33" fill="none" xmlns="http://www.w3.org/2000/svg">
<path d="M41.504 25.9921C41.504 28.0467 41.504 30.1013 41.5112 32.1549C41.5112 32.4561 41.4367 32.5492 41.1262 32.5461C39.5508 32.5302 37.9748 32.5302 36.398 32.5461C36.0534 32.5461 35.9436 32.4726 35.9457 32.1052C35.9602 28.4107 35.9626 24.7159 35.9529 21.0207C35.9529 18.2829 34.3372 16.0016 31.8044 15.1291C27.9312 13.7949 23.8003 16.7345 23.7972 20.8302C23.7972 24.5772 23.7996 28.3237 23.8044 32.07C23.8044 32.4302 23.7392 32.5554 23.349 32.5492C21.786 32.5244 20.2221 32.5285 18.6591 32.5492C18.3144 32.5492 18.2058 32.4757 18.2068 32.1083C18.2223 28.3748 18.2171 24.6413 18.2161 20.9068C18.2236 19.5261 17.7579 18.1845 16.8964 17.1056C16.035 16.0266 14.8298 15.2753 13.4817 14.9769C13.223 14.919 13.0946 14.8382 13.0977 14.5277C13.1174 12.8996 13.1143 11.2724 13.0977 9.64429C13.0977 9.33998 13.1795 9.28616 13.4745 9.32239C16.3188 9.67224 18.715 10.8988 20.6692 12.9824C20.929 13.2598 21.046 13.3001 21.3275 12.9938C25.8176 8.1155 33.504 7.98198 38.1473 12.7153C40.3499 14.9614 41.4812 17.6836 41.4988 20.8406C41.5123 22.5557 41.504 24.2739 41.504 25.9921Z" fill="white"/>
<path d="M6.15662 10.8794C6.49302 10.7086 6.81803 10.5347 7.15028 10.3753C8.60883 9.67278 10.2009 9.2909 11.8195 9.25534C12.0813 9.25016 12.1734 9.30502 12.1714 9.58863C12.1569 11.2164 12.1569 12.8446 12.1714 14.4731C12.1714 14.7205 12.1051 14.7971 11.8526 14.8136C10.4728 14.9068 9.23076 15.3695 8.18431 16.2876C6.74971 17.5441 6.05933 19.1443 6.05829 21.0489C6.05829 24.7316 6.06071 28.4144 6.06554 32.0971C6.06554 32.4377 5.99826 32.5577 5.62667 32.5525C4.0513 32.5298 2.47387 32.536 0.897464 32.5525C0.607647 32.5525 0.5 32.4967 0.5 32.1747C0.510351 25.2098 0.489649 18.2449 0.513456 11.2799C0.530017 6.24227 4.40219 1.47476 9.31667 0.348615C10.1211 0.160774 10.9407 0.0447361 11.7656 0.00186824C12.0472 -0.0115876 12.1797 0.0412006 12.1724 0.373456C12.1552 1.98816 12.1552 3.6032 12.1724 5.21859C12.1724 5.51876 12.0813 5.57362 11.8019 5.58397C8.98649 5.68333 6.48784 7.98221 6.13489 10.7727C6.13817 10.809 6.14546 10.8447 6.15662 10.8794Z" fill="white"/>
<circle cx="55.9792" cy="28.0315" r="4.52121" fill="url(#paint0_linear_3266_365)"/>
<defs>
<linearGradient id="paint0_linear_3266_365" x1="52.4527" y1="25.0475" x2="58.9632" y2="31.558" gradientUnits="userSpaceOnUse">
<stop stop-color="#B16CEA"/>
<stop offset="0.502746" stop-color="#FF5E69"/>
<stop offset="0.775446" stop-color="#FF8A56"/>
<stop offset="0.922908" stop-color="#FFA84B"/>
</linearGradient>
</defs>
</svg>
