<svg width="26" height="26" viewBox="0 0 26 26" fill="none" xmlns="http://www.w3.org/2000/svg">
<path d="M5.65927 7.22771C6.92946 7.22771 7.95916 6.19802 7.95916 4.92782C7.95916 3.65763 6.92946 2.62793 5.65927 2.62793C4.38907 2.62793 3.35938 3.65763 3.35938 4.92782C3.35938 6.19802 4.38907 7.22771 5.65927 7.22771Z" fill="white"/>
<path d="M10.1309 8.97061V21.7304H14.0926V15.4204C14.0926 13.7554 14.4059 12.143 16.4703 12.143C18.5064 12.143 18.5316 14.0466 18.5316 15.5255V21.7314H22.4954V14.734C22.4954 11.2968 21.7554 8.65527 17.738 8.65527C15.8092 8.65527 14.5162 9.71377 13.9875 10.7155H13.9339V8.97061H10.1309ZM3.6748 8.97061H7.64285V21.7304H3.6748V8.97061Z" fill="white"/>
</svg>
