<svg width="60" height="34" viewBox="0 0 60 34" fill="none" xmlns="http://www.w3.org/2000/svg">
<path d="M41.004 26.7162C41.004 28.7708 41.004 30.8254 41.0112 32.879C41.0112 33.1802 40.9367 33.2733 40.6262 33.2702C39.0508 33.2544 37.4748 33.2544 35.898 33.2702C35.5534 33.2702 35.4436 33.1967 35.4457 32.8293C35.4602 29.1348 35.4626 25.44 35.4529 21.7448C35.4529 19.0071 33.8372 16.7258 31.3044 15.8532C27.4312 14.519 23.3003 17.4586 23.2972 21.5543C23.2972 25.3013 23.2996 29.0479 23.3044 32.7941C23.3044 33.1543 23.2392 33.2795 22.849 33.2733C21.286 33.2485 19.7221 33.2526 18.1591 33.2733C17.8144 33.2733 17.7058 33.1998 17.7068 32.8324C17.7223 29.0989 17.7171 25.3654 17.7161 21.6309C17.7236 20.2503 17.2579 18.9087 16.3964 17.8297C15.535 16.7507 14.3298 15.9994 12.9817 15.7011C12.723 15.6431 12.5946 15.5624 12.5977 15.2518C12.6174 13.6237 12.6143 11.9966 12.5977 10.3684C12.5977 10.0641 12.6795 10.0103 12.9745 10.0465C15.8188 10.3964 18.215 11.6229 20.1692 13.7065C20.429 13.9839 20.546 14.0243 20.8275 13.7179C25.3176 8.83962 33.004 8.7061 37.6473 13.4394C39.8499 15.6855 40.9812 18.4078 40.9988 21.5647C41.0123 23.2798 41.004 24.998 41.004 26.7162Z" fill="black"/>
<path d="M5.65662 11.603C5.99302 11.4322 6.31803 11.2583 6.65028 11.0989C8.10883 10.3964 9.70094 10.0145 11.3195 9.97897C11.5813 9.97379 11.6734 10.0287 11.6714 10.3123C11.6569 11.9401 11.6569 13.5682 11.6714 15.1967C11.6714 15.4441 11.6051 15.5207 11.3526 15.5373C9.97284 15.6304 8.73076 16.0931 7.68431 17.0112C6.24971 18.2678 5.55933 19.868 5.55829 21.7725C5.55829 25.4552 5.56071 29.138 5.56554 32.8207C5.56554 33.1613 5.49826 33.2814 5.12667 33.2762C3.5513 33.2534 1.97387 33.2596 0.397464 33.2762C0.107647 33.2762 0 33.2203 0 32.8984C0.0103506 25.9334 -0.0103506 18.9685 0.0134558 12.0036C0.0300168 6.9659 3.90219 2.1984 8.81667 1.07225C9.62112 0.884407 10.4407 0.768369 11.2656 0.725501C11.5472 0.712045 11.6797 0.764833 11.6724 1.09709C11.6552 2.71179 11.6552 4.32683 11.6724 5.94222C11.6724 6.24239 11.5813 6.29725 11.3019 6.3076C8.48649 6.40697 5.98784 8.70584 5.63489 11.4964C5.63817 11.5326 5.64546 11.5684 5.65662 11.603Z" fill="black"/>
<circle cx="55.4792" cy="28.7556" r="4.52121" fill="url(#paint0_linear_3266_499)"/>
<defs>
<linearGradient id="paint0_linear_3266_499" x1="51.9527" y1="25.7716" x2="58.4632" y2="32.2821" gradientUnits="userSpaceOnUse">
<stop stop-color="#B16CEA"/>
<stop offset="0.502746" stop-color="#FF5E69"/>
<stop offset="0.775446" stop-color="#FF8A56"/>
<stop offset="0.922908" stop-color="#FFA84B"/>
</linearGradient>
</defs>
</svg>
