<svg width="68" height="58" viewBox="0 0 68 58" fill="none" xmlns="http://www.w3.org/2000/svg">
<path d="M31.8995 -7.24792e-05C24.2082 -7.24792e-05 16.8319 3.05528 11.3933 8.49384C5.95477 13.9324 2.89941 21.3087 2.89941 29C2.89941 36.6912 5.95476 44.0675 11.3933 49.5061C16.8319 54.9446 24.2082 58 31.8994 58L31.8995 29L31.8995 -7.24792e-05Z" fill="url(#paint0_linear_2427_3413)"/>
<path d="M29 -7.24792e-05C21.3087 -7.24792e-05 13.9325 3.05528 8.49391 8.49384C3.05535 13.9324 5.80676e-07 21.3087 0 29C-5.80676e-07 36.6912 3.05535 44.0675 8.49391 49.5061C13.9325 54.9446 21.3087 58 29 58L29 29L29 -7.24792e-05Z" fill="black"/>
<path d="M51.1504 15C46.7743 15 42.5775 16.7384 39.4831 19.8327C36.3888 22.9271 34.6504 27.1239 34.6504 31.5C34.6504 35.8761 36.3888 40.0729 39.4831 43.1673C42.5775 46.2616 46.7743 48 51.1504 48L51.1504 31.5V15Z" fill="url(#paint1_linear_2427_3413)"/>
<path d="M48.5 15C44.1239 15 39.9271 16.7384 36.8327 19.8327C33.7384 22.9271 32 27.1239 32 31.5C32 35.8761 33.7384 40.0729 36.8327 43.1673C39.9271 46.2616 44.1239 48 48.5 48L48.5 31.5V15Z" fill="black"/>
<defs>
<linearGradient id="paint0_linear_2427_3413" x1="40" y1="3" x2="40.5" y2="59.5" gradientUnits="userSpaceOnUse">
<stop offset="0.00223711" stop-color="#B16CEA"/>
<stop offset="0.428766" stop-color="#FF5E69"/>
<stop offset="0.732809" stop-color="#FF8A56"/>
<stop offset="1" stop-color="#FFA84B"/>
</linearGradient>
<linearGradient id="paint1_linear_2427_3413" x1="55.7593" y1="16.7069" x2="56.0438" y2="48.8534" gradientUnits="userSpaceOnUse">
<stop offset="0.00223711" stop-color="#B16CEA"/>
<stop offset="0.428766" stop-color="#FF5E69"/>
<stop offset="0.732809" stop-color="#FF8A56"/>
<stop offset="1" stop-color="#FFA84B"/>
</linearGradient>
</defs>
</svg>
