<svg width="528" height="640" viewBox="0 0 528 640" fill="none" xmlns="http://www.w3.org/2000/svg">
<g id="Group 594">
<text id="THINK" fill="#E40058" xml:space="preserve" style="white-space: pre" font-family="Plus Jakarta Sans" font-size="11.9464" font-weight="600" letter-spacing="0.24em"><tspan x="69.7442" y="294.01">THINK</tspan></text>
<g id="Frame 646">
<text id="ASSUMPTIONS" fill="#E40058" xml:space="preserve" style="white-space: pre" font-family="Plus Jakarta Sans" font-size="14.933" font-weight="bold" letter-spacing="0.09em"><tspan x="31.7365" y="533.469">ASSUMPTIONS</tspan></text>
<text id="Research Ideation Mental models Hypotheses" fill="#333333" xml:space="preserve" style="white-space: pre" font-family="Plus Jakarta Sans" font-size="11.9464" letter-spacing="0em"><tspan x="66.8917" y="560.696">Research&#10;</tspan><tspan x="69.8025" y="584.589">Ideation&#10;</tspan><tspan x="51.7604" y="608.482">Mental models&#10;</tspan><tspan x="58.7019" y="632.375">Hypotheses </tspan></text>
</g>
<g id="Frame 647">
<text id="TESTING MVP" fill="#F4950E" xml:space="preserve" style="white-space: pre" font-family="Plus Jakarta Sans" font-size="14.933" font-weight="bold" letter-spacing="0.09em"><tspan x="378.426" y="533.469">TESTING MVP</tspan></text>
<text id="Usability testing Feedback systems" fill="#333333" xml:space="preserve" style="white-space: pre" font-family="Plus Jakarta Sans" font-size="11.9464" letter-spacing="0em"><tspan x="388.978" y="560.566">Usability testing&#10;</tspan><tspan x="380.683" y="584.458">Feedback systems</tspan></text>
</g>
<g id="Frame 648">
<text id="MINIMUM VIABLE PRODUCT (MVP)" fill="#F4950E" xml:space="preserve" style="white-space: pre" font-family="Plus Jakarta Sans" font-size="14.933" font-weight="bold" letter-spacing="0.09em"><tspan x="119.161" y="15.5927">MINIMUM VIABLE PRODUCT (MVP)</tspan></text>
<text id="Wireframes Prototypes" fill="#333333" xml:space="preserve" style="white-space: pre" font-family="Plus Jakarta Sans" font-size="11.9464" letter-spacing="0em"><tspan x="229.226" y="42.6897">Wireframes&#10;</tspan><tspan x="230.042" y="66.5824">Prototypes</tspan></text>
</g>
<g id="&#240;&#159;&#146;&#173;">
<text fill="#E40058" xml:space="preserve" style="white-space: pre" font-family="Plus Jakarta Sans" font-size="44.799" font-weight="600" letter-spacing="0.1em"><tspan x="70.4579" y="349.383">&#x1f4ad;</tspan></text>
</g>
<g id="&#240;&#159;&#148;&#168;">
<text fill="#E40058" xml:space="preserve" style="white-space: pre" font-family="Plus Jakarta Sans" font-size="38.8258" font-weight="600" letter-spacing="0.1em"><tspan x="243.745" y="346.802">&#x1f528;</tspan></text>
</g>
<g id="&#240;&#159;&#148;&#141;">
<text transform="matrix(-1 0 0 1 456.031 310.606)" fill="#E40058" xml:space="preserve" style="white-space: pre" font-family="Plus Jakarta Sans" font-size="38.8258" font-weight="600" letter-spacing="0.1em"><tspan x="0.0871143" y="36.1951">&#x1f50d;</tspan></text>
</g>
<text id="MAKE" fill="#E40058" xml:space="preserve" style="white-space: pre" font-family="Plus Jakarta Sans" font-size="11.9464" font-weight="600" letter-spacing="0.24em"><tspan x="241.052" y="294.01">MAKE</tspan></text>
<text id="CHECK" fill="#E40058" xml:space="preserve" style="white-space: pre" font-family="Plus Jakarta Sans" font-size="11.9464" font-weight="600" letter-spacing="0.24em"><tspan x="410.237" y="294.01">CHECK</tspan></text>
<path id="Union" fill-rule="evenodd" clip-rule="evenodd" d="M333.554 212.049L263.07 212.049V242.512H333.554V372.715V403.178H364.017L512.929 403.178C513.116 403.217 513.322 403.17 513.479 403.007L527.583 388.361C527.806 388.129 527.806 387.763 527.583 387.532L513.479 372.886C513.322 372.723 513.116 372.675 512.929 372.715H364.017V242.512H364.017V212.049L364.017 212.049H333.554Z" fill="#F4950E"/>
<path id="Union_2" fill-rule="evenodd" clip-rule="evenodd" d="M159.436 403.191H189.899L189.899 403.191V372.728L189.899 242.525H266.834C267.02 242.565 267.227 242.517 267.384 242.354L281.488 227.708C281.71 227.477 281.71 227.111 281.488 226.879L267.384 212.233C267.227 212.07 267.02 212.022 266.833 212.062H159.435V242.525H159.436V372.728H88.9519V403.191H159.436V403.191Z" fill="#EA5539"/>
<path id="Union_3" fill-rule="evenodd" clip-rule="evenodd" d="M30.7133 270.586H0.25V372.728V403.191H30.7133L98.3892 403.191C98.576 403.23 98.7827 403.183 98.9396 403.02L113.043 388.374C113.266 388.142 113.266 387.776 113.043 387.545L98.9396 372.899C98.7828 372.736 98.5762 372.688 98.3894 372.728H30.7133V270.586Z" fill="#E40058"/>
<path id="Union_4" fill-rule="evenodd" clip-rule="evenodd" d="M93.1322 403.191V470.389H94.6255V403.191H93.1322ZM104.183 491.594V470.389H82.9778V491.594H104.183Z" fill="#E40058"/>
<path id="Union_5" fill-rule="evenodd" clip-rule="evenodd" d="M430.321 403.191V470.389H431.814L431.814 403.191H430.321ZM441.371 491.594V470.389H420.166V491.594H441.371Z" fill="#F4950E"/>
<path id="Union_6" fill-rule="evenodd" clip-rule="evenodd" d="M260.084 212.049V144.85H261.577V212.049H260.084ZM271.134 123.645V144.85H249.93V123.645H271.134Z" fill="#EA5539"/>
</g>
</svg>
